<?xml version="1.0" encoding="utf-8"?>
<!-- Generator: Adobe Illustrator 21.0.2, SVG Export Plug-In . SVG Version: 6.00 Build 0)  -->
<svg version="1.1" id="Calque_1" xmlns="http://www.w3.org/2000/svg" xmlns:xlink="http://www.w3.org/1999/xlink" x="0px" y="0px"
	 viewBox="0 0 80 79.4" style="enable-background:new 0 0 80 79.4;" xml:space="preserve">
<style type="text/css">
	.st0{fill:#FFFFFF;}
</style>
<g>
	<g>
		<path class="st0" d="M26.1,22c-2.6-4.6-11.3-1.4-13.6,7.3c0-0.1-5.8,20-5.8,20.1c-0.6,2.1-1,5.4,0.2,6.9c2,2.5,9.9,1.8,14.4-13.9
			c0.6-2.2,3.8-1.9,3.1,0.3c0,0,0.2-0.8-7.4,25.2C14,81,1.8,82,0.3,75.6c-0.5-2.3,0.3-4.9,1.9-6.4c1.8-1.6,3.7,0.7,1.9,2.3
			c-1.1,1-1.2,4.7,2.2,4.6c6.4-0.2,7.5-7.9,10.7-19c-4.3,4.2-10.5,4.5-12.8,1.6c-3.2-4-0.3-10.6,5.2-29.7
			c3.6-12.2,15.9-15.9,19.8-9.1c2.5,4.6-1.2,10.7-5.8,11.7c-5.8,1.2-3.7-4.1-1.3-3.3C24.6,29.1,27.9,25.1,26.1,22z"/>
		<path class="st0" d="M50.3,43.3l-1.3,4.3c-2.1,6.6-8.4,8.4-10.7,5.3c-3,3.4-7.9,4.7-10,2.3c-1.9-2.1-1-5.2-0.3-7.8
			c3.1-10.5,3.4-13.3,7.5-15.8c2.2-1.3,5-1.5,6.6,0.1l0.3-0.9c0.6-2.2,3.7-1.9,3.1,0.4c0,0.1-3.6,12-3.6,12c-1,3.3-2.4,7.7,0.3,7.8
			c1.2,0.1,3-1.2,3.7-3.8l1.3-4.3C47.9,40.7,51,41,50.3,43.3z M37.4,48.4c0.6-2.9,0.7-3.3,2.8-10.4c-0.3-0.3-0.5-0.8-0.4-1.4
			c0.7-3.3-1.9-3-3.1-2.3c-2.4,1.4-2.5,2.8-5.5,13.1c-0.7,2.5-1.2,4.2-0.3,5.1C32.1,54,36.8,51.8,37.4,48.4z"/>
		<path class="st0" d="M59.2,41.3l-1.2,4.1c-2.3,8.7-12.3,9.4-11.4,0.5c0.3-2.7,2.7-10.5,4.7-17.2c0.6-2.2,3.7-1.9,3.1,0.4
			c-1.7,5.7-4.3,14.2-4.5,16.5c-0.1,1.4,0,3.1,1.4,3.3c2.9,0.4,3.8-4.7,4.7-7.9C56.7,38.8,59.9,39.1,59.2,41.3z"/>
		<path class="st0" d="M79.7,33.4l-2.9,9.2c-2.1,6.6-8.4,8.4-10.7,5.3c-3,3.4-7.9,4.7-10,2.3c-1.9-2.1-1-5.2-0.3-7.8
			c3.1-10.5,3.4-13.3,7.5-15.8c2.2-1.3,5-1.5,6.6,0.1l0.3-0.9c0.6-2.2,3.7-1.9,3.1,0.4c0,0.1-3.6,12-3.6,12c-1,3.3-2.4,7.7,0.3,7.8
			c1.2,0.1,3-1.2,3.7-3.8l2.9-9.1C77.3,30.8,80.4,31.2,79.7,33.4z M65.2,43.4c0.6-2.9,0.7-3.4,2.8-10.4c-0.3-0.3-0.5-0.8-0.4-1.4
			c0.7-3.3-1.9-3-3.1-2.3c-2.4,1.4-2.5,2.8-5.5,13.1c-0.7,2.5-1.2,4.2-0.3,5.1C59.9,49,64.6,46.9,65.2,43.4z"/>
	</g>
	<ellipse transform="matrix(0.975 -0.2223 0.2223 0.975 0.9145 10.7234)" class="st0" cx="48.1" cy="1.3" rx="1.9" ry="1"/>
	<path class="st0" d="M73.2,20.6l0-0.3l-0.1-0.5c0-0.3-0.1-0.7-0.2-1c-0.1-0.7-0.3-1.4-0.5-2c-0.4-1.3-0.9-2.7-1.6-3.9
		c-1.4-2.5-3.3-4.6-5.5-6.3c-2.3-1.7-4.9-2.8-7.6-3.4c-2.7-0.6-5.6-0.6-8.4-0.1c-2.8,0.5-5.4,1.6-7.8,3.2c-2.3,1.6-4.3,3.6-5.8,6
		c-1.5,2.4-2.5,5.1-2.8,7.9c-0.2,1.4-0.2,2.8-0.1,4.2c0.1,1.4,0.4,2.8,0.9,4.1l0.1,0.2l0.2,0l39.2-7.6c0-0.1,0-0.1,0-0.2L73.2,20.6z
		 M52.9,23.6c-3.3,0.5-6.5,1-9.7,1.5c-1,0.2-2,0.3-2.9,0.5c-0.3,0.1-0.5-5.7-0.4-6.2c0.2-2.1,0.7-4.3,1.5-6.2c0.7-1.6,1.8-3.2,3-4.5
		c1.5-1.7,3.5-3,5.7-3.7c3.6-1.2,7.7-0.5,11.1,0.9c1.2,0.5,2.4,1.1,3.5,1.8c4,2.7,7,7.5,7.8,12.2c0,0,0.1,0.5,0.1,0.5
		c0,0,0,0.1,0,0.1C72.6,20.5,56.2,23.1,52.9,23.6z"/>
</g>
</svg>
